<svg xmlns="http://www.w3.org/2000/svg" xmlns:xlink="http://www.w3.org/1999/xlink" width="124" height="124" viewBox="0 0 124 124">
  <defs>
    <circle id="b" cx="62" cy="62" r="62"/>
    <filter id="a" width="111.3%" height="111.3%" x="-5.6%" y="-4%" filterUnits="objectBoundingBox">
      <feOffset dy="2" in="SourceAlpha" result="shadowOffsetOuter1"/>
      <feGaussianBlur in="shadowOffsetOuter1" result="shadowBlurOuter1" stdDeviation="2"/>
      <feColorMatrix in="shadowBlurOuter1" values="0 0 0 0 0 0 0 0 0 0 0 0 0 0 0 0 0 0 0.1 0"/>
    </filter>
  </defs>
  <g fill="none" fill-rule="evenodd">
    <use fill="#000" filter="url(#a)" xlink:href="#b"/>
    <use fill="#FFF" xlink:href="#b"/>
    <g transform="translate(20.798 25)">
      <path stroke="#CEC2DB" stroke-width="1.6" d="M.799999952 64.3434782L.799999952 72.0048077C.799999952 72.6648942 1.3351058 73.2 1.99519231 73.2 2.65527882 73.2 3.19038466 72.6648942 3.19038466 72.0048077L3.19038466 64.3434782.799999952 64.3434782zM79.0115384 64.3434782L79.0115384 72.0048077C79.0115384 72.6648942 79.5466443 73.2 80.2067308 73.2 80.8668173 73.2 81.4019231 72.6648942 81.4019231 72.0048077L81.4019231 64.3434782 79.0115384 64.3434782z"/>
      <path fill="#FFF" fill-rule="nonzero" stroke="#7A589E" stroke-width="1.6" d="M0.799999952,0.799999952 L0.799999952,60.3434785 C0.799999952,61.6689618 1.87451649,62.7434783 3.19999981,62.7434783 L79.0019233,62.7434783 C80.3274066,62.7434783 81.4019231,61.6689618 81.4019231,60.3434785 L81.4019231,0.799999952 L0.799999952,0.799999952 Z" transform="matrix(1 0 0 -1 0 63.543)"/>
      <path fill="#F1ECF3" fill-rule="nonzero" stroke="#7A589E" stroke-width="1.6" d="M0.799999952,66.7652174 L81.4019231,66.7652174 L81.4019231,65.1347824 C81.4019231,63.8092991 80.3274066,62.7347826 79.0019233,62.7347826 L3.19999981,62.7347826 C1.87451649,62.7347826 0.799999952,63.8092991 0.799999952,65.1347824 L0.799999952,66.7652174 Z" transform="matrix(1 0 0 -1 0 129.5)"/>
      <path stroke="#CEC2DB" stroke-linecap="round" stroke-linejoin="round" stroke-width="1.6" d="M3.99038462 4.42391304L78.2115385 4.42391304M7.98076923 72.7934783L75.0698899 72.7934783"/>
      <path stroke="#CEC2DB" stroke-width="1.6" d="M13.1529059,14.3981438 L21.4608272,14.3913582 C22.7863101,14.3902756 23.8617039,15.4639141 23.8627865,16.789397 C23.8627876,16.7913498 23.8627876,16.7913498 23.8627865,16.7933025 L23.8536461,28.0703271 C23.852573,29.394285 22.7795652,30.4672995 21.4556073,30.4683809 L10.2889923,30.4775014 C8.96350946,30.478584 7.88811565,29.4049454 7.88703304,28.0794625 C7.88703198,28.0775098 7.88703198,28.0775098 7.88703303,28.075557 L7.89382366,19.6976099 L13.1529059,14.3981438 Z" transform="rotate(-6 15.875 22.434)"/>
      <path fill="#CEC2DB" fill-rule="nonzero" d="M9.01836769,15.7277095 L13.0085414,15.7244505 L8.2157574,20.5540377 L8.21902141,16.5270607 C8.21937912,16.0857414 8.57704838,15.7280699 9.01836769,15.7277095 Z" transform="rotate(174 10.612 18.14)"/>
      <path stroke="#7A589E" stroke-linecap="round" stroke-width="1.6" d="M33.5192308 15.2826087L43.6873571 15.2826087M33.5192308 20.1086957L73.9241538 20.1086957"/>
      <path stroke="#CEC2DB" stroke-linecap="round" stroke-width="1.6" d="M39.1057692,24.9347826 L56.8171672,24.9347826"/>
      <path stroke="#7A589E" stroke-linecap="round" stroke-width="1.6" d="M33.5192308 35.3913043L51.2306287 35.3913043M33.5192308 35.3913043L51.2306287 35.3913043M33.5192308 41.0217391L45.4903846 41.0217391M33.5192308 35.3913043L51.2306287 35.3913043M33.5192308 35.3913043L51.2306287 35.3913043"/>
      <path stroke="#CEC2DB" stroke-linecap="round" stroke-width="1.6" d="M49.4807692,41.0217391 L65.4423077,41.0217391"/>
      <path stroke="#7A589E" stroke-linecap="round" stroke-width="1.6" d="M39.1057692,30.5652174 L73.8277545,30.5652174"/>
      <path stroke="#CEC2DB" stroke-linecap="round" stroke-width="1.6" d="M39.1057692,51.4782609 L63.5959181,51.4782609"/>
      <path stroke="#7A589E" stroke-linecap="round" stroke-width="1.6" d="M39.1057692,46.6521739 L73.8277545,46.6521739"/>
      <path stroke="#CEC2DB" stroke-linecap="round" stroke-width="1.6" d="M48.6826923,15.2826087 L68.6876526,15.2826087"/>
      <path fill="#FFF" fill-rule="nonzero" stroke="#CEC2DB" stroke-width="1.6" d="M18.5540549,35.8646041 L23.6747247,35.8680973 C24.998934,35.8690006 26.0721903,36.9422626 26.0730867,38.2664719 L26.078543,46.3266726 C26.0794403,47.6521556 25.0056514,48.7273993 23.6801684,48.7282966 C23.6785374,48.7282973 23.6785374,48.7282973 23.6769065,48.7282965 L15.7031647,48.722857 C14.3789554,48.7219537 13.305699,47.6486917 13.3048026,46.3244824 L13.3013052,41.1580256 L18.5540549,35.8646041 Z" transform="rotate(5 19.69 42.297)"/>
      <path fill="#CEC2DB" fill-rule="nonzero" d="M15.1947932,35.5943226 L19.1824528,35.5970429 L14.3969722,40.4195773 L14.3942477,36.394864 C14.3939486,35.9530363 14.7518783,35.5946217 15.1937059,35.5943226 C15.1940684,35.5943224 15.1944308,35.5943224 15.1947932,35.5943226 Z" transform="rotate(-175 16.788 38.007)"/>
    </g>
  </g>
</svg>
