<svg xmlns="http://www.w3.org/2000/svg" xmlns:xlink="http://www.w3.org/1999/xlink" width="124" height="124" viewBox="0 0 124 124">
  <defs>
    <circle id="b" cx="62" cy="62" r="62"/>
    <filter id="a" width="111.3%" height="111.3%" x="-5.6%" y="-4%" filterUnits="objectBoundingBox">
      <feOffset dy="2" in="SourceAlpha" result="shadowOffsetOuter1"/>
      <feGaussianBlur in="shadowOffsetOuter1" result="shadowBlurOuter1" stdDeviation="2"/>
      <feColorMatrix in="shadowBlurOuter1" values="0 0 0 0 0 0 0 0 0 0 0 0 0 0 0 0 0 0 0.1 0"/>
    </filter>
    <linearGradient id="c" x1="50%" x2="50%" y1="88.487%" y2="93.248%">
      <stop offset="0%" stop-color="#FFF"/>
      <stop offset="100%" stop-color="#FFF" stop-opacity="0"/>
    </linearGradient>
  </defs>
  <g fill="none" fill-rule="evenodd">
    <use fill="#000" filter="url(#a)" xlink:href="#b"/>
    <use fill="#FFF" xlink:href="#b"/>
    <g transform="translate(25 17)">
      <path fill="url(#c)" d="M42.3304366,36.1921612 C41.1933515,34.6959754 39.5541565,33.7570093 37.7320264,33.7570093 C35.8890406,33.7570093 34.2327379,34.7181478 33.0941255,36.2450774 C32.4821125,37.1025428 31.6384352,36.8055954 30.5630935,35.3542352 C28.7383316,32.8914022 26.107798,31.3457944 23.1836954,31.3457944 C20.2261242,31.3457944 17.5681366,32.9278997 15.7409237,35.441339 C14.6907629,36.8858974 9.9754277,46.2887019 1.59491823,63.6497526 C-0.79911595,70.2439298 0.336139836,76.2936244 5.00068559,81.7988362 L7.19191146,79.6781869 C16.8032973,84.3973067 23.462267,84.6183305 27.1688205,80.3412584 C30.875374,76.0641863 34.3898608,73.9317419 37.7122811,73.9439252 C40.7910514,73.9317419 43.2415652,75.2795472 45.0638225,77.9873412 C46.8860797,80.6951352 54.6910598,81.2587504 68.4787629,79.6781869 L70.6262303,81.7988362 C75.2907761,76.2936244 76.4260319,70.2439298 74.0319977,63.6497526 C65.6514882,46.2887019 60.9361531,36.8858974 59.8859922,35.441339 C58.0587793,32.9278997 55.4007918,31.3457944 52.4432205,31.3457944 C49.5191179,31.3457944 46.8885844,32.8914022 45.0638225,35.3542352 C43.9116554,36.7945626 43.0005268,37.0738713 42.3304366,36.1921612 Z"/>
      <path fill="#F1ECF3" fill-rule="nonzero" d="M21.7596616 73.157473L16.1893621 69.6551881 7.28806488 79.4203726C14.3023627 85.9797178 20.799665 86.6572879 26.7799716 81.4530828 32.7602783 76.2488776 34.1264167 70.0794168 30.8783868 62.9447002L21.7596616 73.157473zM59.3933504 74.554883L54.405344 71.8931298 45.8618023 79.9709995C52.8761001 86.5303447 59.3734023 87.2079148 65.353709 82.0037097 71.3340157 76.7995046 72.9189856 70.6746755 70.1086188 63.6292225L59.3933504 74.554883z"/>
      <path stroke="#7A589E" stroke-linecap="round" stroke-linejoin="round" stroke-width="1.6" d="M18.1487619 55.4579439C10.0950647 55.4579439 3.56887296 62.0335728 3.56887296 70.1430467 3.56887296 78.2501789 10.0950647 84.8281495 18.1487619 84.8281495 26.2001341 84.8281495 32.7286507 78.2501789 32.7286507 70.1430467 32.7286507 62.0335728 26.2001341 55.4579439 18.1487619 55.4579439zM37.6992669 53.046729C36.037043 53.046729 34.6900851 54.4038904 34.6900851 56.0776262 34.6900851 57.7508786 36.037043 59.1085234 37.6992669 59.1085234 39.3610109 59.1085234 40.7084487 57.7508786 40.7084487 56.0776262 40.7084487 54.4038904 39.3610109 53.046729 37.6992669 53.046729zM57.249772 55.4579439C49.1960748 55.4579439 42.6698831 62.0335728 42.6698831 70.1430467 42.6698831 78.2501789 49.1960748 84.8281495 57.249772 84.8281495 65.3011442 84.8281495 71.8296608 78.2501789 71.8296608 70.1430467 71.8296608 62.0335728 65.3011442 55.4579439 57.249772 55.4579439z"/>
      <path stroke="#CEC2DB" stroke-linecap="round" stroke-width="1.6" d="M53.5649356 59.2602385C45.613618 62.3703878 45.8239473 71.9973743 45.8616327 72.0997187M14.4723917 59.4766355C6.52107409 62.5867849 6.73140334 72.2137713 6.76908881 72.3161157"/>
      <path stroke="#7A589E" stroke-linecap="round" stroke-linejoin="round" stroke-width="1.6" d="M38.9033989,30.3828878 C37.4072131,31.5199729 36.4682471,33.1591679 36.4682471,34.981298 C36.4682471,36.8242838 37.4293855,38.4805865 38.9563151,39.6191989" transform="rotate(90 37.712 35.001)"/>
      <path stroke="#7A589E" stroke-linecap="round" stroke-linejoin="round" stroke-width="1.6" d="M38.9033989,68.9738441 C37.4072131,70.5038874 36.4682471,72.7095615 36.4682471,75.1613902 C36.4682471,77.641282 37.4293855,79.869976 38.9563151,81.4020744" transform="rotate(90 37.712 75.188)"/>
      <path stroke="#7A589E" stroke-linecap="round" stroke-linejoin="round" stroke-width="1.6" d="M38.9033989,61.7286822 C37.4072131,62.8657673 36.4682471,64.5049623 36.4682471,66.3270924 C36.4682471,68.1700782 37.4293855,69.8263809 38.9563151,70.9649933" transform="rotate(90 37.712 66.347)"/>
      <path stroke="#7A589E" stroke-linecap="round" stroke-linejoin="round" stroke-width="1.6" d="M21.7468333,30.7991532 C20.2506474,32.4274361 19.3116814,34.77473 19.3116814,37.3839833 C19.3116814,40.0231016 20.2728199,42.3948935 21.7997494,44.0253634" transform="rotate(90 20.556 37.412)"/>
      <path stroke="#7A589E" stroke-linecap="round" stroke-linejoin="round" stroke-width="1.6" d="M56.0599646,30.7991532 C54.5637787,32.4274361 53.6248127,34.77473 53.6248127,37.3839833 C53.6248127,40.0231016 54.5859512,42.3948935 56.1128807,44.0253634" transform="rotate(90 54.869 37.412)"/>
      <path stroke="#7A589E" stroke-linecap="round" stroke-linejoin="round" stroke-width="1.6" d="M-5.7480565,41.4792454 C-8.21088947,43.3040073 -9.75649727,45.9345409 -9.75649727,48.8586435 C-9.75649727,51.8162147 -8.17439201,54.4742023 -5.66095262,56.3014152 C-4.21639426,57.351576 5.18641025,62.0669112 22.5474609,70.4474207 C29.1416382,72.8414549 35.1913327,71.7061991 40.6965445,67.0416533" transform="rotate(90 15.47 56.572)"/>
      <path stroke="#7A589E" stroke-linecap="round" stroke-linejoin="round" stroke-width="1.6" d="M38.9388122,41.4792454 C36.4759792,43.3040073 34.9303714,45.9345409 34.9303714,48.8586435 C34.9303714,51.8162147 36.5124767,54.4742023 39.0259161,56.3014152 C40.4704744,57.351576 49.8732789,62.0669112 67.2343296,70.4474207 C73.8285069,72.8414549 79.8782014,71.7061991 85.3834132,67.0416533" transform="matrix(0 1 1 0 3.585 -3.585)"/>
      <polyline stroke="#7A589E" stroke-linecap="round" stroke-linejoin="round" stroke-width="1.6" points="7.192 79.821 16.23 69.701 21.534 73.745 30.714 62.834"/>
      <polyline stroke="#7A589E" stroke-linecap="round" stroke-linejoin="round" stroke-width="1.6" points="46.66 79.678 54.464 71.831 59.453 74.79 65.246 68.871"/>
      <polyline stroke="#7A589E" stroke-linecap="round" stroke-linejoin="round" stroke-width="1.6" points="62.243 68.262 66.244 67.595 66.325 71.595"/>
      <path stroke="#CEC2DB" stroke-linecap="round" stroke-width="1.6" d="M6.76079215,24.6837978 C7.87494039,10.7760914 20.6641954,15.0058639 20.654692,14.8424832 C20.6047773,13.9843647 19.4874052,1.78461941 31.5108057,0.148829166 C40.4311944,-1.06479461 46.4021142,5.32963598 46.2162108,12.5608085 C45.9499539,22.9175326 38.246866,23.8538982 35.3359918,23.4372718 C32.4995573,23.0312998 30.2521001,20.2656174 30.0075994,17.4512248 C29.3891752,10.3326804 39.3202017,10.6775252 37.894778,16.4775739"/>
      <path stroke="#CEC2DB" stroke-linecap="round" stroke-linejoin="round" stroke-width="1.6" d="M67.8559112,8.56199763 C59.9322496,10.7754346 55.3094763,18.8318382 57.519286,26.5762976 C58.2629216,29.186257 60.038081,31.3964306 62.4540436,32.720349 C64.8700062,34.0442674 67.7287528,34.3734185 70.4010603,33.6353546 C72.2858113,33.1333528 73.8909309,31.918252 74.8609417,30.2591542 C75.8309526,28.6000563 76.0858035,26.6338804 75.5690541,24.7960649 C74.7917077,22.1478958 71.9776839,20.6117298 69.2567881,21.3502203 C67.3518625,21.8757306 66.2348214,23.8070078 66.7588362,25.668985" transform="rotate(164 66.399 21.292)"/>
      <path stroke="#CEC2DB" stroke-linecap="round" stroke-width="1.6" d="M46.6597821,10.0829087 C51.1545011,6.97528881 54.9694808,7.40855654 58.1047211,11.3827119"/>
      <path stroke="#CEC2DB" stroke-linecap="round" stroke-width="1.6" d="M11.2824069,25.1756856 C6.18127778,24.0094935 2.61796472,25.2660313 0.59246768,28.9452991" transform="rotate(7 5.937 26.85)"/>
    </g>
  </g>
</svg>
