<svg xmlns="http://www.w3.org/2000/svg" xmlns:xlink="http://www.w3.org/1999/xlink" width="124" height="124" viewBox="0 0 124 124">
  <defs>
    <circle id="b" cx="62" cy="62" r="62"/>
    <filter id="a" width="111.3%" height="111.3%" x="-5.6%" y="-4%" filterUnits="objectBoundingBox">
      <feOffset dy="2" in="SourceAlpha" result="shadowOffsetOuter1"/>
      <feGaussianBlur in="shadowOffsetOuter1" result="shadowBlurOuter1" stdDeviation="2"/>
      <feColorMatrix in="shadowBlurOuter1" values="0 0 0 0 0 0 0 0 0 0 0 0 0 0 0 0 0 0 0.1 0"/>
    </filter>
  </defs>
  <g fill="none" fill-rule="evenodd">
    <use fill="#000" filter="url(#a)" xlink:href="#b"/>
    <use fill="#FFF" xlink:href="#b"/>
    <g stroke-linecap="round" stroke-linejoin="round" stroke-width="1.656" transform="translate(18 18)">
      <path stroke="#CEC2DB" d="M55.4194766,59.7714623 C55.4194766,59.6442453 55.5068472,59.5170283 55.554504,59.3977624 C56.2225257,57.6879747 57.5421265,56.3141505 59.2226299,55.57891 C60.9031334,54.8436696 62.8066815,54.8073275 64.5139684,55.4778892 C65.253719,55.7713817 65.9385233,56.1880689 66.5393792,56.7103037 C68.6932393,51.4166519 74.726175,48.8731666 80.0143183,51.0292703 C85.3024616,53.185374 87.8433002,59.2245941 85.68944,64.5182459"/>
      <path stroke="#CEC2DB" d="M83.927157 53.9517983C85.696709 56.049695 86.447501 59.3778988 86.2135528 62.1136191 85.9796045 64.8493394 84.6679275 67.3794662 82.5679245 69.1457636 81.0998151 70.3903051 79.1978601 70.9998791 77.2806744 70.84032 75.3634887 70.680761 73.5882045 69.7651462 72.3455569 68.295 70.5378493 66.1536903 70.8044374 62.9513008 72.941266 61.1390448 74.4385769 59.8745173 76.6752941 60.0593275 77.9452222 61.5525 78.8338071 62.6026239 78.7059118 64.1745287 77.6592818 65.0668691M60.1295496 55.2791126C56.4661792 56.3203864 54.3348623 60.1323058 55.3638771 63.8026504 55.71016 65.0395918 56.5332524 66.0880991 57.6519879 66.7173909 58.7707233 67.3466827 60.0934071 67.5051805 61.3289105 67.1579982 62.2003147 66.9219194 62.9417408 66.3478114 63.3889892 65.562819 63.8362377 64.7778265 63.9523987 63.846732 63.7117468 62.97574 63.3498364 61.7206691 62.0467799 60.990481 60.788801 61.3378213 59.9080851 61.5850172 59.3930628 62.4988007 59.6370968 63.3812441"/>
      <path stroke="#CEC2DB" d="M49.0017042 60.3805761L49.0017042 62.983691C49.0017042 67.7066215 55.1176506 67.1420961 55.1176506 62.5384316M35.1415399 66.6968367C35.1415399 66.5616686 35.1415399 66.4265006 35.1415399 66.2913325 35.2123609 64.0555963 34.2000762 61.9232839 32.4236719 60.5663193 30.6472676 59.2093547 28.3255093 58.7948493 26.1900183 59.4534198 26.3501321 53.7447949 21.8569907 48.987107 16.1543061 48.8268264 10.4516216 48.6665457 5.69888438 53.1643674 5.53877054 58.8729923 4.85499512 58.4316483 4.06439253 58.1843276 3.25124772 58.1573968 2.2514601 58.1169595 1.30089783 58.4017275.514075707 58.9271509"/>
      <path stroke="#CEC2DB" d="M11.3356058 50.0521448C8.87366448 51.2588788 6.90613629 53.8126453 6.01964178 56.409275 5.13314726 59.0059047 5.31448012 61.8488382 6.5236762 64.3115183 8.27452584 67.9160979 12.6123617 69.4181254 16.2138771 67.6668662 17.4329832 67.0844777 18.3698784 66.039632 18.8171154 64.763679 19.2643523 63.4877259 19.1850305 62.0859414 18.5967133 60.8687087 18.1842706 60.0164991 17.449145 59.3642902 16.5544391 59.0567879 15.6597332 58.7492855 14.679434 58.8119184 13.8310408 59.2307901 12.5911923 59.8250337 12.0654316 61.3114992 12.6555082 62.5543337M32.6395618 60.6778833C34.0545114 61.844816 34.948241 63.5267752 35.1240226 65.3535275 35.2998042 67.1802798 34.7432291 69.0020874 33.5768107 70.4179334 32.7616386 71.4070382 31.5873047 72.0314214 30.3122051 72.1536961 29.0371054 72.2759707 27.7657146 71.8861183 26.7777845 71.0699204 26.0812569 70.5011118 25.6401238 69.6777 25.5521562 68.782183 25.4641887 67.8866659 25.7366526 66.9930107 26.3091601 66.2992836 27.1439758 65.293765 28.6318156 65.1483722 29.6451309 65.9732901 30.3531543 66.5553584 30.4562451 67.6015752 29.8754717 68.3109021"/>
      <path stroke="#CEC2DB" d="M40.4949787,56.8432755 L40.4949787,64.5102948 C40.4949787,70.0760377 35.1335971,68.7561616 35.1335971,65.1145755"/>
      <path fill="#FFF" stroke="#7A589E" d="M52.0754536 42.3350578L52.0754536 44.6583232C52.0754536 45.9345703 51.0233555 46.9815886 49.7363027 46.9815886L39.5126536 46.9815886C38.2256008 46.9815886 37.1735027 45.9345703 37.1735027 44.6583232L37.1735027 42.3350578 52.0754536 42.3350578zM33.5520812 41.0443548L31.2898623 40.451664C30.0464736 40.1274394 29.2958661 38.8491272 29.6243868 37.6141826L32.2296812 27.7945143C32.5561227 26.5595697 33.8431755 25.8140596 35.0886434 26.1403494L37.3508623 26.7330402 33.5520812 41.0443548zM56.4765921 40.715587L58.738811 40.1228962C59.9821997 39.7986716 60.7328072 38.5203593 60.4042865 37.2854147L57.7989921 27.4657464C57.4725506 26.2308018 56.1854978 25.4852918 54.9400299 25.8115815L52.677811 26.4042723 56.4765921 40.715587z"/>
      <path stroke="#7A589E" d="M45.1415094 50.0660377L45.1415094 86.6360378M49.6556604 49.9058052L49.6556604 57.4329926"/>
      <path stroke="#CEC2DB" d="M49.6556604 71.9884741L49.6556604 83.6745478M54.5801887 74.5284467L54.5801887 78.984452M34.8820755 77.8114656L34.8820755 82.2674709M40.2169811 72.8869373L40.2169811 79.6132075"/>
      <path stroke="#7A589E" d="M40.6273585,50.0660377 L40.6273585,54.4482325"/>
      <path fill="#FFF" stroke="#7A589E" d="M56.5801385,43.8839014 L33.4485348,43.8839014 C33.4485348,43.8839014 34.1409234,0 45.0153763,0 C55.8877499,0 56.5801385,43.8839014 56.5801385,43.8839014 Z"/>
      <path fill="#F1ECF3" stroke="#7A589E" d="M44.4806693,24.6444688 C44.889944,24.4053223 45.3935878,24.4053223 45.8028624,24.6444688 L48.5846993,26.2727445 C48.9934611,26.5124109 49.245283,26.954312 49.245283,27.4331249 L49.245283,30.6896764 C49.245283,31.1679694 48.9934611,31.6103904 48.5846993,31.8500568 L45.8028624,33.4778126 C45.3935878,33.717479 44.889944,33.717479 44.4806693,33.4778126 L41.6988324,31.8500568 C41.2895577,31.6103904 41.0377358,31.1679694 41.0377358,30.6896764 L41.0377358,27.4331249 C41.0377358,26.954312 41.2895577,26.5124109 41.6988324,26.2727445 L44.4806693,24.6444688 Z"/>
    </g>
  </g>
</svg>
