<svg xmlns="http://www.w3.org/2000/svg" xmlns:xlink="http://www.w3.org/1999/xlink" width="124" height="124" viewBox="0 0 124 124">
  <defs>
    <circle id="b" cx="62" cy="62" r="62"/>
    <filter id="a" width="111.3%" height="111.3%" x="-5.6%" y="-4%" filterUnits="objectBoundingBox">
      <feOffset dy="2" in="SourceAlpha" result="shadowOffsetOuter1"/>
      <feGaussianBlur in="shadowOffsetOuter1" result="shadowBlurOuter1" stdDeviation="2"/>
      <feColorMatrix in="shadowBlurOuter1" values="0 0 0 0 0 0 0 0 0 0 0 0 0 0 0 0 0 0 0.1 0"/>
    </filter>
  </defs>
  <g fill="none" fill-rule="evenodd">
    <use fill="#000" filter="url(#a)" xlink:href="#b"/>
    <use fill="#FFF" xlink:href="#b"/>
    <g transform="translate(26.5 32.5)">
      <g transform="translate(39 .54)">
        <path fill="#FEFEFE" d="M21.403,18.3329 L25.468,12.8299 C26.006,12.1039 26.081,11.1369 25.671,10.3329 C21.805,2.7609 15.547,-2.9341 7.873,2.2659 C7.62,2.4369 7.366,2.6159 7.11,2.8049 L5.802,2.5019 C3.549,2.2119 0.773,6.1409 0.426,7.4659 C-0.505,11.0299 4.24,14.4359 3.851,17.6689"/>
        <path stroke="#CDC1D9" stroke-linecap="round" stroke-linejoin="round" stroke-width="1.6" d="M21.403,18.3329 L25.468,12.8299 C26.006,12.1039 26.081,11.1369 25.671,10.3329 C21.805,2.7609 15.547,-2.9341 7.873,2.2659 C7.62,2.4369 7.366,2.6159 7.11,2.8049 L5.802,2.5019 C3.549,2.2119 0.773,6.1409 0.426,7.4659 C-0.505,11.0299 4.24,14.4359 3.851,17.6689"/>
      </g>
      <path fill="#FEFEFE" d="M60.7975,17.6452 C59.5855,12.7032 55.5645,8.7692 53.2945,6.8752 C52.1745,5.9412 50.6635,5.5962 49.2685,6.0232 C46.5725,6.8452 42.6015,9.4492 42.6015,17.6452 C42.6015,21.9262 44.9695,26.2562 46.7095,28.8622 C47.5945,30.1862 47.0865,31.9862 45.6465,32.6662 L34.5985,37.8912 C32.4665,39.0342 33.2735,42.2892 35.6895,42.2892 L67.7095,42.2892 C70.1255,42.2892 70.9325,39.0342 68.7995,37.8912 L57.7525,32.6662 C56.3135,31.9862 55.8035,30.1862 56.6885,28.8622 C58.4295,26.2572 60.7975,21.9262 60.7975,17.6452"/>
      <path stroke="#CDC1D9" stroke-linecap="round" stroke-linejoin="round" stroke-width="1.6" d="M60.7975,17.6452 C59.5855,12.7032 55.5645,8.7692 53.2945,6.8752 C52.1745,5.9412 50.6635,5.5962 49.2685,6.0232 C46.5725,6.8452 42.6015,9.4492 42.6015,17.6452 C42.6015,21.9262 44.9695,26.2562 46.7095,28.8622 C47.5945,30.1862 47.0865,31.9862 45.6465,32.6662 L34.5985,37.8912 C32.4665,39.0342 33.2735,42.2892 35.6895,42.2892 L67.7095,42.2892 C70.1255,42.2892 70.9325,39.0342 68.7995,37.8912 L57.7525,32.6662 C56.3135,31.9862 55.8035,30.1862 56.6885,28.8622 C58.4295,26.2572 60.7975,21.9262 60.7975,17.6452 Z"/>
      <path fill="#FEFEFE" d="M31.4362,16.0299 C31.6062,15.9749 31.7682,15.8879 31.9052,15.7609 C32.3902,15.3109 32.3952,14.5779 31.9152,14.1229 C31.8072,14.0199 31.6832,13.9449 31.5522,13.8879 C31.6432,13.8399 31.7302,13.7839 31.8072,13.7119 C32.2932,13.2609 32.2972,12.5279 31.8182,12.0729 C31.6522,11.9149 31.4492,11.8149 31.2352,11.7649 C31.2582,11.7469 31.2852,11.7309 31.3082,11.7109 C31.7932,11.2599 31.7982,10.5269 31.3182,10.0709 C31.0862,9.8509 30.7842,9.7399 30.4782,9.7299 C30.8832,9.2769 30.8672,8.6039 30.4152,8.1749 C30.1082,7.8839 29.6772,7.7789 29.2792,7.8579 C29.5692,7.4139 29.5152,6.8269 29.1072,6.4389 C28.7242,6.0769 28.1512,6.0059 27.6882,6.2169 C27.8772,5.7979 27.7922,5.2949 27.4292,4.9499 C27.0072,4.5499 26.3512,4.4989 25.8692,4.7979 C25.9172,4.4549 25.8082,4.0949 25.5282,3.8299 C25.0592,3.3849 24.3032,3.3739 23.8162,3.7929 C23.7902,3.5359 23.6782,3.2849 23.4692,3.0869 C22.9902,2.6319 22.2072,2.6269 21.7202,3.0769 C21.6792,3.1149 21.6472,3.1569 21.6132,3.1989 C21.5562,3.0249 21.4602,2.8589 21.3152,2.7199 C20.8342,2.2649 20.0512,2.2599 19.5662,2.7109 C19.4682,2.8009 19.3952,2.9049 19.3362,3.0139 C19.2812,2.9129 19.2132,2.8159 19.1232,2.7309 C18.6432,2.2749 17.8602,2.2709 17.3742,2.7209 C17.2152,2.8689 17.1132,3.0479 17.0572,3.2359 C17.0242,3.1959 16.9942,3.1549 16.9552,3.1179 C16.4752,2.6619 15.6922,2.6579 15.2062,3.1079 C14.9802,3.3169 14.8632,3.5869 14.8452,3.8619 C14.3642,3.4269 13.5992,3.4269 13.1212,3.8709 C12.8202,4.1489 12.7052,4.5369 12.7732,4.8999 C12.2922,4.5709 11.6162,4.6039 11.1782,5.0089 C10.7902,5.3699 10.7142,5.9099 10.9442,6.3449 C10.4722,6.0839 9.8562,6.1359 9.4472,6.5149 C9.0202,6.9109 8.9652,7.5259 9.2862,7.9779 C8.8702,7.8669 8.4062,7.9579 8.0772,8.2629 C7.6132,8.6929 7.5922,9.3789 8.0092,9.8369 C7.6842,9.8279 7.3552,9.9359 7.1052,10.1689 C6.6192,10.6179 6.6152,11.3519 7.0942,11.8069 C7.1172,11.8279 7.1422,11.8429 7.1652,11.8619 C6.9342,11.9039 6.7132,12.0079 6.5332,12.1749 C6.0472,12.6249 6.0422,13.3579 6.5232,13.8129 C6.5932,13.8809 6.6722,13.9349 6.7542,13.9819 C6.6132,14.0379 6.4792,14.1179 6.3632,14.2249 C5.8762,14.6759 5.8722,15.4099 6.3522,15.8649 C6.4772,15.9829 6.6232,16.0689 6.7772,16.1269 C6.7122,16.1669 6.6512,16.2129 6.5932,16.2649 C6.1082,16.7159 6.1032,17.4489 6.5832,17.9049 C6.7692,18.0809 6.9992,18.1869 7.2412,18.2279 C7.2372,18.2319 7.2322,18.2339 7.2282,18.2379 C6.7422,18.6879 6.7372,19.4219 7.2172,19.8769 C7.4732,20.1199 7.8152,20.2299 8.1522,20.2169 C7.7882,20.6679 7.8182,21.3109 8.2552,21.7259 C8.5932,22.0459 9.0792,22.1379 9.5062,22.0109 C9.2412,22.4509 9.3002,23.0179 9.6992,23.3949 C10.1782,23.8499 10.9612,23.8549 11.4482,23.4049 C11.4632,23.3899 11.4752,23.3729 11.4902,23.3569 C15.7942,26.6559 22.0822,26.6229 26.4992,23.2709 C26.5132,23.2849 26.5232,23.3009 26.5382,23.3149 C27.0182,23.7699 27.8012,23.7749 28.2872,23.3249 C28.7042,22.9379 28.7642,22.3429 28.4692,21.8939 C28.9112,22.0569 29.4312,21.9739 29.7902,21.6409 C30.2422,21.2229 30.2722,20.5619 29.8882,20.1049 C30.2472,20.1419 30.6192,20.0389 30.8952,19.7829 C31.3802,19.3329 31.3852,18.5989 30.9052,18.1429 C30.8982,18.1359 30.8892,18.1319 30.8812,18.1249 C31.1432,18.0949 31.3982,17.9909 31.6002,17.8029 C32.0852,17.3539 32.0902,16.6199 31.6102,16.1649 C31.5562,16.1129 31.4972,16.0689 31.4362,16.0299"/>
      <path stroke="#CDC1D9" stroke-linecap="round" stroke-linejoin="round" stroke-width="1.6" d="M31.4362,16.0299 C31.6062,15.9749 31.7682,15.8879 31.9052,15.7609 C32.3902,15.3109 32.3952,14.5779 31.9152,14.1229 C31.8072,14.0199 31.6832,13.9449 31.5522,13.8879 C31.6432,13.8399 31.7302,13.7839 31.8072,13.7119 C32.2932,13.2609 32.2972,12.5279 31.8182,12.0729 C31.6522,11.9149 31.4492,11.8149 31.2352,11.7649 C31.2582,11.7469 31.2852,11.7309 31.3082,11.7109 C31.7932,11.2599 31.7982,10.5269 31.3182,10.0709 C31.0862,9.8509 30.7842,9.7399 30.4782,9.7299 C30.8832,9.2769 30.8672,8.6039 30.4152,8.1749 C30.1082,7.8839 29.6772,7.7789 29.2792,7.8579 C29.5692,7.4139 29.5152,6.8269 29.1072,6.4389 C28.7242,6.0769 28.1512,6.0059 27.6882,6.2169 C27.8772,5.7979 27.7922,5.2949 27.4292,4.9499 C27.0072,4.5499 26.3512,4.4989 25.8692,4.7979 C25.9172,4.4549 25.8082,4.0949 25.5282,3.8299 C25.0592,3.3849 24.3032,3.3739 23.8162,3.7929 C23.7902,3.5359 23.6782,3.2849 23.4692,3.0869 C22.9902,2.6319 22.2072,2.6269 21.7202,3.0769 C21.6792,3.1149 21.6472,3.1569 21.6132,3.1989 C21.5562,3.0249 21.4602,2.8589 21.3152,2.7199 C20.8342,2.2649 20.0512,2.2599 19.5662,2.7109 C19.4682,2.8009 19.3952,2.9049 19.3362,3.0139 C19.2812,2.9129 19.2132,2.8159 19.1232,2.7309 C18.6432,2.2749 17.8602,2.2709 17.3742,2.7209 C17.2152,2.8689 17.1132,3.0479 17.0572,3.2359 C17.0242,3.1959 16.9942,3.1549 16.9552,3.1179 C16.4752,2.6619 15.6922,2.6579 15.2062,3.1079 C14.9802,3.3169 14.8632,3.5869 14.8452,3.8619 C14.3642,3.4269 13.5992,3.4269 13.1212,3.8709 C12.8202,4.1489 12.7052,4.5369 12.7732,4.8999 C12.2922,4.5709 11.6162,4.6039 11.1782,5.0089 C10.7902,5.3699 10.7142,5.9099 10.9442,6.3449 C10.4722,6.0839 9.8562,6.1359 9.4472,6.5149 C9.0202,6.9109 8.9652,7.5259 9.2862,7.9779 C8.8702,7.8669 8.4062,7.9579 8.0772,8.2629 C7.6132,8.6929 7.5922,9.3789 8.0092,9.8369 C7.6842,9.8279 7.3552,9.9359 7.1052,10.1689 C6.6192,10.6179 6.6152,11.3519 7.0942,11.8069 C7.1172,11.8279 7.1422,11.8429 7.1652,11.8619 C6.9342,11.9039 6.7132,12.0079 6.5332,12.1749 C6.0472,12.6249 6.0422,13.3579 6.5232,13.8129 C6.5932,13.8809 6.6722,13.9349 6.7542,13.9819 C6.6132,14.0379 6.4792,14.1179 6.3632,14.2249 C5.8762,14.6759 5.8722,15.4099 6.3522,15.8649 C6.4772,15.9829 6.6232,16.0689 6.7772,16.1269 C6.7122,16.1669 6.6512,16.2129 6.5932,16.2649 C6.1082,16.7159 6.1032,17.4489 6.5832,17.9049 C6.7692,18.0809 6.9992,18.1869 7.2412,18.2279 C7.2372,18.2319 7.2322,18.2339 7.2282,18.2379 C6.7422,18.6879 6.7372,19.4219 7.2172,19.8769 C7.4732,20.1199 7.8152,20.2299 8.1522,20.2169 C7.7882,20.6679 7.8182,21.3109 8.2552,21.7259 C8.5932,22.0459 9.0792,22.1379 9.5062,22.0109 C9.2412,22.4509 9.3002,23.0179 9.6992,23.3949 C10.1782,23.8499 10.9612,23.8549 11.4482,23.4049 C11.4632,23.3899 11.4752,23.3729 11.4902,23.3569 C15.7942,26.6559 22.0822,26.6229 26.4992,23.2709 C26.5132,23.2849 26.5232,23.3009 26.5382,23.3149 C27.0182,23.7699 27.8012,23.7749 28.2872,23.3249 C28.7042,22.9379 28.7642,22.3429 28.4692,21.8939 C28.9112,22.0569 29.4312,21.9739 29.7902,21.6409 C30.2422,21.2229 30.2722,20.5619 29.8882,20.1049 C30.2472,20.1419 30.6192,20.0389 30.8952,19.7829 C31.3802,19.3329 31.3852,18.5989 30.9052,18.1429 C30.8982,18.1359 30.8892,18.1319 30.8812,18.1249 C31.1432,18.0949 31.3982,17.9909 31.6002,17.8029 C32.0852,17.3539 32.0902,16.6199 31.6102,16.1649 C31.5562,16.1129 31.4972,16.0689 31.4362,16.0299 Z"/>
      <path fill="#FEFEFE" d="M28.1286,15.9127 C28.2126,16.6617 28.2326,16.7987 28.2326,17.6687 C28.2326,21.9357 25.8796,26.2517 24.1406,28.8587 C23.2506,30.1927 23.7426,32.0077 25.1866,32.6897 L36.2336,37.9147 C38.3656,39.0587 37.5596,42.3117 35.1436,42.3117 L3.1236,42.3117 C0.7076,42.3117 -0.0994,39.0587 2.0336,37.9147 L13.0806,32.6897 C14.5246,32.0077 15.0156,30.1927 14.1266,28.8587 C12.3876,26.2517 10.0356,21.9357 10.0356,17.6687 C10.0356,15.2437 10.3856,13.3127 10.9446,11.7677 L22.4616,9.9287 L26.5636,15.8057 L28.1286,15.9127 Z"/>
      <path stroke="#CDC1D9" d="M28.1286,15.9127 C28.2126,16.6617 28.2326,16.7987 28.2326,17.6687 C28.2326,21.9357 25.8796,26.2517 24.1406,28.8587 C23.2506,30.1927 23.7426,32.0077 25.1866,32.6897 L36.2336,37.9147 C38.3656,39.0587 37.5596,42.3117 35.1436,42.3117 L3.1236,42.3117 C0.7076,42.3117 -0.0994,39.0587 2.0336,37.9147 L13.0806,32.6897 C14.5246,32.0077 15.0156,30.1927 14.1266,28.8587 C12.3876,26.2517 10.0356,21.9357 10.0356,17.6687 C10.0356,15.2437 10.3856,13.3127 10.9446,11.7677 L22.4616,9.9287 L26.5636,15.8057 L28.1286,15.9127 Z"/>
      <path stroke="#CDC1D9" stroke-linecap="round" stroke-linejoin="round" stroke-width="1.6" d="M10.8727,11.9625 C10.3537,13.4735 10.0357,15.3465 10.0357,17.6685 C10.0357,21.9365 12.3877,26.2515 14.1267,28.8585 C15.0157,30.1925 14.5237,32.0075 13.0807,32.6905 L2.0337,37.9145 C-0.0993,39.0585 0.7077,42.3125 3.1237,42.3125 L35.1437,42.3125 C37.5597,42.3125 38.3657,39.0585 36.2337,37.9145 L25.1857,32.6905 C23.7427,32.0075 23.2507,30.1925 24.1407,28.8585 C25.8797,26.2515 28.2317,21.9365 28.2317,17.6685 C28.2317,16.5965 28.1637,15.6205 28.0397,14.7315"/>
      <path stroke="#CDC1D9" stroke-linecap="round" stroke-linejoin="round" stroke-width="1.6" d="M10.195,10.3092 C10.103,10.5882 10.12,10.9042 10.269,11.1902 C10.569,11.7652 11.284,12.0002 11.867,11.7162 C12.187,11.5602 12.396,11.2792 12.474,10.9622 C12.812,11.4232 13.445,11.5942 13.972,11.3372 C14.293,11.1812 14.502,10.9002 14.58,10.5832 C14.918,11.0432 15.55,11.2152 16.078,10.9582 C16.398,10.8022 16.606,10.5212 16.685,10.2052 C17.023,10.6642 17.656,10.8362 18.183,10.5792 C18.504,10.4222 18.712,10.1412 18.79,9.8252 C19.129,10.2862 19.761,10.4562 20.289,10.2002 C20.609,10.0432 20.817,9.7622 20.895,9.4462 C21.234,9.9062 21.866,10.0782 22.394,9.8212 C22.401,9.8172 22.407,9.8122 22.414,9.8082 C22.429,9.8482 22.441,9.8892 22.462,9.9282 C22.7,10.3852 23.199,10.6222 23.687,10.5612 C23.472,10.8942 23.434,11.3262 23.633,11.7072 C23.87,12.1632 24.37,12.4022 24.858,12.3402 C24.642,12.6722 24.604,13.1052 24.803,13.4862 C25.041,13.9432 25.541,14.1802 26.029,14.1192 C25.813,14.4522 25.775,14.8832 25.974,15.2652 C26.273,15.8402 26.989,16.0762 27.572,15.7912 C27.837,15.6632 28.027,15.4502 28.129,15.2022"/>
      <path fill="#F0EAF1" d="M18.4176,58.7409 C15.6636,58.7409 14.7446,55.0309 17.1746,53.7279 L29.7686,47.7729 C31.4136,46.9949 31.9736,44.9269 30.9596,43.4059 C28.9776,40.4329 26.2966,35.5139 26.2966,30.6499 C26.2966,16.5109 36.6676,16.9739 36.6676,16.9739 C36.6676,16.9739 47.0376,16.5109 47.0376,30.6499 C47.0376,35.5139 44.3566,40.4329 42.3746,43.4059 C41.3606,44.9269 41.9206,46.9949 43.5666,47.7729 L56.1586,53.7279 C58.5906,55.0309 57.6706,58.7409 54.9166,58.7409 L18.4176,58.7409 Z"/>
      <path stroke="#7A599E" stroke-linecap="round" stroke-linejoin="round" stroke-width="1.6" d="M18.4176,58.7409 C15.6636,58.7409 14.7446,55.0309 17.1746,53.7279 L29.7686,47.7729 C31.4136,46.9949 31.9736,44.9269 30.9596,43.4059 C28.9776,40.4329 26.2966,35.5139 26.2966,30.6499 C26.2966,16.5109 36.6676,16.9739 36.6676,16.9739 C36.6676,16.9739 47.0376,16.5109 47.0376,30.6499 C47.0376,35.5139 44.3566,40.4329 42.3746,43.4059 C41.3606,44.9269 41.9206,46.9949 43.5666,47.7729 L56.1586,53.7279 C58.5906,55.0309 57.6706,58.7409 54.9166,58.7409 L18.4176,58.7409 Z"/>
      <path fill="#FEFEFE" d="M42.152,18.7135 L43.012,15.9205 C43.321,14.9185 42.792,13.8595 41.81,13.4905 C38.681,12.3175 32.018,10.4975 27.948,14.3055 C22.487,19.4135 22.223,28.4845 19.052,27.6925 C19.052,27.6925 19.757,33.5055 24.865,32.9775 C29.973,32.4485 31.432,18.3665 42.152,18.7135"/>
      <path stroke="#7A599E" stroke-linecap="round" stroke-linejoin="round" stroke-width="1.6" d="M42.152,18.7135 L43.012,15.9205 C43.321,14.9185 42.792,13.8595 41.81,13.4905 C38.681,12.3175 32.018,10.4975 27.948,14.3055 C22.487,19.4135 22.223,28.4845 19.052,27.6925 C19.052,27.6925 19.757,33.5055 24.865,32.9775 C29.973,32.4485 31.432,18.3665 42.152,18.7135 Z"/>
    </g>
  </g>
</svg>
